<?xml version="1.0" encoding="UTF-8" standalone="no"?>
<svg
   xmlns:dc="http://purl.org/dc/elements/1.1/"
   xmlns:cc="http://creativecommons.org/ns#"
   xmlns:rdf="http://www.w3.org/1999/02/22-rdf-syntax-ns#"
   xmlns:svg="http://www.w3.org/2000/svg"
   xmlns="http://www.w3.org/2000/svg"
   xmlns:sodipodi="http://sodipodi.sourceforge.net/DTD/sodipodi-0.dtd"
   xmlns:inkscape="http://www.inkscape.org/namespaces/inkscape"
   width="275.01651mm"
   height="72.367424mm"
   viewBox="0 0 275.01651 72.367424"
   version="1.1"
   id="svg1439"
   inkscape:version="1.0 (1.0+r73+1)"
   sodipodi:docname="gym-venue .svg">
  <defs
     id="defs1433">
    <rect
       x="197.62804"
       y="149.50404"
       width="89.595718"
       height="19.362144"
       id="rect2010" />
    <rect
       x="9.0545645"
       y="53.037159"
       width="285.56723"
       height="125.03683"
       id="rect2004" />
  </defs>
  <sodipodi:namedview
     fit-margin-bottom="0"
     fit-margin-right="0"
     fit-margin-left="0"
     fit-margin-top="0"
     id="base"
     pagecolor="#ffffff"
     bordercolor="#666666"
     borderopacity="1.0"
     inkscape:pageopacity="0.0"
     inkscape:pageshadow="2"
     inkscape:zoom="0.35"
     inkscape:cx="365.78202"
     inkscape:cy="379.15012"
     inkscape:document-units="mm"
     inkscape:current-layer="layer1"
     inkscape:document-rotation="0"
     showgrid="false"
     inkscape:window-width="1326"
     inkscape:window-height="654"
     inkscape:window-x="40"
     inkscape:window-y="40"
     inkscape:window-maximized="1" />
  <metadata
     id="metadata1436">
    <rdf:RDF>
      <cc:Work
         rdf:about="">
        <dc:format>image/svg+xml</dc:format>
        <dc:type
           rdf:resource="http://purl.org/dc/dcmitype/StillImage" />
        <dc:title></dc:title>
      </cc:Work>
    </rdf:RDF>
  </metadata>
  <g
     transform="translate(-9.053506,-47.849865)"
     inkscape:label="Layer 1"
     inkscape:groupmode="layer"
     id="layer1">
    <g
       aria-label="Gym Venue"
       id="text2002"
       style="font-style:normal;font-weight:normal;font-size:10.5833px;line-height:1.25;font-family:sans-serif;letter-spacing:0px;word-spacing:0px;white-space:pre;shape-inside:url(#rect2004);fill:#000000;fill-opacity:1;stroke:none">
      <path
         d="m 25.361487,85.549109 c 0.762,-1.27 1.9304,-1.2192 2.9972,-1.1176 2.7432,0.254 5.3848,-0.1524 7.9756,-0.9652 1.5748,-0.508 3.048,-1.27 4.572,-1.9304 l 2.4892,-1.1176 c 1.0668,1.3716 1.1684,1.7272 0.3556,2.54 -0.762,0.7112 -1.5748,1.3208 -2.4892,1.778 -2.6924,1.3716 -5.5372,2.2352 -8.5344,2.6924 l -2.8448,0.4572 c -0.1016,0.6096 -0.1524,1.0668 -0.2032,1.524 -0.3556,5.3848 -4.7244,10.769601 -9.9568,11.988801 -5.3848,1.27 -8.89,-1.0668 -10.3631995,-5.740401 -0.4572,-1.4732 -0.3556,-2.9972 0,-4.4704 1.7779995,-8.2804 5.7911995,-15.3416 11.8363995,-21.2344 2.6924,-2.6416 5.7404,-4.9276 9.0932,-6.7564 1.9812,-1.0668 4.064,-1.7272 6.35,-1.6256 2.9464,0.1016 4.572,1.7272 4.2164,4.7244 -0.2032,1.7272 -0.5588,3.4544 -1.2192,5.0292 -0.7112,1.778 -1.778,3.3528 -2.7432,4.9784 -0.254,0.3556 -0.6604,0.762 -1.0668,0.8636 -0.3556,0.1524 -0.9144,0 -1.27,-0.2032 -0.1524,-0.1016 -0.1016,-0.762 0.0508,-1.016 0.254,-0.6096 0.6604,-1.0668 1.016,-1.5748 1.524,-2.1336 2.3368,-4.4704 2.6416,-7.0612 0.0508,-0.4064 0.1016,-0.762 0.0508,-1.1684 -0.2032,-2.8448 -1.3208,-3.4544 -3.81,-2.1336 -0.762,0.4064 -1.524,0.9144 -2.1844,1.4224 -7.0104,5.2324 -12.1412,11.9888 -15.3416,20.1168 -0.9144,2.3368 -1.3716,4.8768 -1.8796,7.3152 -0.4064,1.9304 0.1524,3.81 1.27,5.3848 0.6096,0.9144 1.1176,1.0668 2.032,0.5588 1.1684,-0.6604 2.2352,-1.4732 3.302,-2.2352 0.3048,-0.254 0.5588,-0.5588 0.8128,-0.8636 2.3876,-3.048 4.1656,-6.1976 2.8448,-10.16 z"
         style="font-style:normal;font-variant:normal;font-weight:normal;font-stretch:normal;font-size:50.8px;font-family:'Wild Youth';-inkscape-font-specification:'Wild Youth, Normal';font-variant-ligatures:normal;font-variant-caps:normal;font-variant-numeric:normal;font-variant-east-asian:normal"
         id="path2014" />
      <path
         d="m 55.481919,84.177509 c -1.0668,0.8128 -2.032,1.7272 -3.1496,2.4892 -1.6256,1.1176 -3.302,2.1844 -5.0292,3.1496 -1.4224,0.762 -2.9972,0.9144 -4.6228,0.7112 -1.778,-0.254 -2.7432,-1.3716 -2.4384,-3.1496 0.6096,-3.2512 4.2164,-9.3472 6.6548,-11.684 0.9652,-0.9144 2.1844,-1.1684 3.556,-0.2032 -1.3716,2.8448 -5.1816,8.7884 -5.7404,11.938 0.9144,0.3048 1.4732,-0.254 2.0828,-0.5588 3.302,-1.8796 6.2992,-4.2164 9.144,-6.7056 l 4.4704,-3.9116 c 0.9652,-0.8636 2.032,-1.27 3.302,-0.7112 0.6604,0.3048 1.016,0.8128 0.8636,1.524 -0.2032,0.8128 -0.4572,1.6764 -0.8128,2.4384 -0.762,1.778 -1.6256,3.4544 -2.3876,5.1816 -0.2032,0.508 -0.3556,1.016 -0.6604,1.778 1.4224,-0.3556 2.1336,-1.2192 2.9972,-1.8288 0.9144,-0.6096 1.778,-1.3208 2.6416,-1.9812 0.9144,-0.6604 1.8288,-1.27 2.6924,-1.9304 l 2.6924,-1.9812 c 0.8636,-0.6096 1.778,-1.27 2.9972,-1.5748 -0.2032,0.3556 -0.4064,0.762 -0.6604,1.016 -1.7272,1.3716 -3.4544,2.7432 -5.1816,4.1656 -2.9464,2.286 -5.842,4.6228 -8.7884,6.858 -1.016,0.8128 -1.778,1.778 -2.3368,2.9464 -2.9464,6.2992 -6.1976,12.446001 -10.2616,18.186401 -1.3208,1.8288 -2.7432,3.6576 -4.2672,5.334 -2.0828,2.2352 -4.572,3.9624 -7.6708,4.4704 -0.9652,0.1524 -2.032,0.0508 -2.9972,-0.1524 -1.2192,-0.254 -1.8288,-1.1684 -1.8796,-2.3876 -0.1016,-1.5748 0.254,-3.048 1.0668,-4.318 1.3716,-2.1336 2.794,-4.2672 4.3688,-6.1976 2.9972,-3.5052 6.4008,-6.604 10.2108,-9.245601 2.9972,-2.0828 5.2832,-4.572 6.7056,-7.9756 0.8128,-1.8796 1.8796,-3.6576 2.794,-5.4356 -0.1016,-0.1016 -0.254,-0.2032 -0.3556,-0.254 z m -20.8788,33.934401 c 0.8128,-0.4064 1.3716,-0.6096 1.8796,-0.9144 1.6764,-1.1684 2.9464,-2.6924 3.9116,-4.3688 2.3368,-3.9624 4.6228,-7.9756 6.9088,-11.938 l 0.4064,-1.066801 c -0.4572,0.254001 -0.6604,0.355601 -0.8128,0.508001 -3.048,2.794 -5.9436,5.6896 -8.4328,8.9916 -1.2192,1.6256 -2.2352,3.4036 -3.2512,5.1816 -0.5588,0.9652 -0.9144,2.032 -0.6096,3.6068 z"
         style="font-style:normal;font-variant:normal;font-weight:normal;font-stretch:normal;font-size:50.8px;font-family:'Wild Youth';-inkscape-font-specification:'Wild Youth, Normal';font-variant-ligatures:normal;font-variant-caps:normal;font-variant-numeric:normal;font-variant-east-asian:normal"
         id="path2016" />
      <path
         d="m 118.50329,76.709909 c -0.1524,-0.2032 -0.5588,-0.4064 -0.8128,-0.3556 -0.5588,0.1524 -1.1684,0.4064 -1.6764,0.762 -1.3716,0.9652 -2.5908,2.0828 -4.0132,2.9464 -3.302,2.032 -0.9652,0.508 -6.2992,3.3528 -0.7112,0.3556 -1.4224,1.016 -2.54,0.7112 -0.0508,-1.016 -0.0508,-2.032 -0.2032,-3.048 -0.2032,-1.7272 -1.0668,-2.54 -2.794,-2.5908 -0.914405,0 -1.930405,0.2032 -2.743205,0.6096 -2.032,1.0668 -3.962399,2.286 -5.892799,3.5052 -0.9652,0.6604 -1.8796,1.3716 -2.8448,2.0828 -0.1524,-0.1524 -0.254,-0.254 -0.4064,-0.3556 l 0.3048,-1.3716 c 0.1016,-0.9144 0.3048,-1.8796 0.254,-2.794 0,-1.4224 -0.7112,-2.2352 -2.1336,-2.286 -0.9144,-0.0508 -1.9812,0.1016 -2.7432,0.5588 -1.9304,1.0668 -3.81,2.2352 -5.5372,3.6068 -2.1336,1.6764 -4.0132,3.6068 -5.9944,5.3848 -0.3556,0.3556 -0.762,0.6096 -1.5748,1.27 0.3556,-0.9652 0.4572,-1.4224 0.6604,-1.8288 0.762,-1.8288 1.5748,-3.6068 2.3368,-5.4356 0.508,-1.2192 1.1176,-2.4384 1.5748,-3.7084 0.1016,-0.4064 0.1524,-1.1176 -0.1016,-1.3208 -0.3556,-0.3048 -1.016,-0.4064 -1.524,-0.3556 -0.9144,0.1016 -1.4224,0.9144 -1.9304,1.6256 -2.5908,3.7084 -4.6736,7.7216 -5.9944,12.0904 -0.1016,0.3556 -0.2032,0.762 -0.254,1.1176 -0.2032,1.27 0.2032,1.9304 1.4224,2.3368 1.4732,0.508 2.8448,0.1524 4.0132,-0.762 0.9144,-0.762 1.778,-1.5748 2.6416,-2.4384 2.3368,-2.3368 4.6228,-4.7244 6.9596,-7.112 1.27,-1.27 2.6924,-2.3876 4.7244,-3.302 -0.1524,0.9144 -0.2032,1.524 -0.3556,2.1336 -0.3048,1.1176 -0.762,2.2352 -1.016,3.4036 -0.508,2.1844 0.3048,3.2004 2.4892,3.1496 0.8128,-0.0508 1.6256,-0.254 2.286,-0.5588 1.016,-0.508 1.8796,-1.1684 2.794,-1.778 1.8288,-1.27 3.606799,-2.5908 5.435599,-3.81 0.4572,-0.3048 0.9652,-0.4572 1.6256,-0.762 0,1.1684 -0.0508,2.0828 0,3.048 0.1016,1.6764 0.8636,2.4892 2.540005,2.9972 1.6256,0.4572 3.2004,0.2032 4.6228,-0.4572 l 11.176,-7.8232 c 0.5588,-0.4572 1.016,-1.016 1.4732,-1.5748 0.1524,-0.2032 0.1524,-0.6604 0.0508,-0.8636 z"
         style="font-style:normal;font-variant:normal;font-weight:normal;font-stretch:normal;font-size:50.8px;font-family:'Wild Youth';-inkscape-font-specification:'Wild Youth, Normal';font-variant-ligatures:normal;font-variant-caps:normal;font-variant-numeric:normal;font-variant-east-asian:normal"
         id="path2018" />
      <path
         d="m 151.73283,69.445509 c 0.4572,1.1176 -0.1016,1.8796 -0.4572,2.6416 -1.27,2.794 -2.6924,5.5372 -3.9116,8.382 -1.3716,3.2004 -2.6924,6.4008 -3.9116,9.652 -0.4572,1.3208 -0.7112,2.794 -0.8636,4.1656 -0.2032,1.5748 -0.1016,3.2004 1.3208,4.4196 1.3208,-0.254 2.3876,-0.9652 3.302,-1.778 2.286,-1.9812 4.5212,-3.9624 6.6548,-6.096 4.318,-4.4196 8.2296,-9.1948 11.5316,-14.478 4.2164,-6.8072 6.5024,-14.1732 6.35,-22.2504 0,-0.7112 0,-1.4224 -0.1016,-2.1336 -0.2032,-2.286 -0.508,-2.7432 -2.4384,-3.7084 2.0828,-0.8128 3.2512,-0.4572 4.064,1.3716 0.4064,0.9652 0.7112,2.0828 0.8636,3.1496 0.762,5.1816 0.1016,10.2616 -1.2192,15.2908 -1.6256,5.9436 -4.318,11.3792 -7.9756,16.3068 -3.6068,4.826 -7.62,9.3472 -12.1412,13.3096 -2.286,2.032 -4.8768,3.606801 -8.0264,3.708401 -1.4732,0.0508 -2.9972,-0.2032 -4.4196,-0.6096 -2.1336,-0.5588 -3.2004,-2.184401 -3.4036,-4.368801 -0.254,-2.0828 0,-4.1148 0.8128,-6.0452 1.2192,-2.9972 2.4384,-5.9944 3.9624,-8.89 1.7272,-3.2512 3.7592,-6.4008 5.6896,-9.5504 0.3556,-0.6096 0.8128,-1.1684 1.27,-1.7272 0.8128,-0.9652 1.778,-1.27 3.048,-0.762 z"
         style="font-style:normal;font-variant:normal;font-weight:normal;font-stretch:normal;font-size:50.8px;font-family:'Wild Youth';-inkscape-font-specification:'Wild Youth, Normal';font-variant-ligatures:normal;font-variant-caps:normal;font-variant-numeric:normal;font-variant-east-asian:normal"
         id="path2020" />
      <path
         d="m 197.7497,77.979909 c -0.2032,1.3208 -0.9144,1.778 -1.4732,2.2352 -6.2992,5.334 -6.9596,6.4008 -10.6172,9.144 -2.4384,1.9812 -5.08,3.7084 -7.7216,5.4356 -1.9812,1.3208 -4.1656,1.9304 -6.5532,2.032 -0.8128,-0.0508 -1.6764,-0.1524 -2.54,-0.4064 -1.2192,-0.3556 -2.032,-1.27 -2.032,-2.54 0,-1.2192 0.1016,-2.4384 0.4064,-3.556 1.7272,-5.2324 4.9276,-9.4996 9.1948,-13.0048 1.2192,-1.016 2.6416,-1.6764 4.3688,-1.5748 2.286,0.1016 2.9972,1.1176 1.9812,3.2004 -1.016,2.2352 -2.3368,4.1656 -4.2672,5.6388 -1.2192,0.9652 -2.5908,1.8288 -3.9624,2.5908 -0.8636,0.4572 -1.3208,1.016 -1.5748,1.9304 -0.4064,1.4224 -0.8128,2.8448 -0.2032,4.2672 1.016,0.3556 1.7272,-0.1016 2.3368,-0.508 1.9304,-1.1176 3.81,-2.2352 5.6388,-3.556 5.9436,-4.3688 3.6068,-2.0828 9.6012,-6.5024 1.7272,-1.27 3.5052,-2.4384 5.2324,-3.6576 0.5588,-0.4064 1.2192,-0.6604 2.1844,-1.1684 z m -16.8656,-0.9144 c -1.6764,0.5588 -2.4384,1.9812 -3.302,3.1496 -1.8288,2.3368 -1.9812,2.6924 -2.2352,4.2164 2.286,-1.1176 4.0132,-2.794 5.1816,-4.9276 0.4064,-0.6604 0.8636,-1.3716 0.3556,-2.4384 z"
         style="font-style:normal;font-variant:normal;font-weight:normal;font-stretch:normal;font-size:50.8px;font-family:'Wild Youth';-inkscape-font-specification:'Wild Youth, Normal';font-variant-ligatures:normal;font-variant-caps:normal;font-variant-numeric:normal;font-variant-east-asian:normal"
         id="path2022" />
      <path
         d="m 197.09962,84.888709 c 0.762,-0.5588 1.4732,-1.1176 2.286,-1.6256 2.3876,-1.5748 4.7244,-3.1496 7.1628,-4.6736 1.1176,-0.6604 2.4384,-1.0668 3.81,-1.1176 2.7432,0 4.1148,1.4224 3.8608,4.1656 -0.1016,1.3716 -0.3556,2.6924 -0.508,4.0132 -0.0508,0.3556 0,0.762 0,1.1684 0.9652,0.4572 1.5748,-0.2032 2.1844,-0.5588 5.08,-2.8956 10.1092,-5.8928 15.1892,-8.8392 0.6096,-0.3556 1.2192,-0.762 1.8288,-1.016 0.4064,-0.1524 0.9652,-0.1524 1.3716,-0.0508 0.6096,0.1016 0.8636,0.8636 0.508,1.27 -0.3556,0.508 -0.8128,0.9652 -1.3208,1.3208 -3.556,2.54 -7.0612,5.08 -10.668,7.5184 -1.778,1.1684 -3.7084,2.1844 -5.588,3.0988 -1.778,0.8128 -3.6576,1.1176 -5.588,0.7112 -2.0828,-0.4064 -2.8448,-1.3208 -2.6416,-3.4544 0.1016,-1.4224 0.4572,-2.794 0.7112,-4.2164 l 0.3556,-3.1496 c -0.8636,0.4064 -1.4224,0.5588 -1.9304,0.8636 -4.3688,2.9972 -8.6868,6.096 -12.446,9.8552 -0.3556,0.3048 -0.6604,0.6604 -1.016,0.9652 -0.9144,0.8128 -2.032,0.9144 -3.1496,0.6604 -1.27,-0.254 -1.7272,-1.016 -1.2192,-2.2352 1.2192,-2.6924 2.4892,-5.334 3.81,-7.9248 0.762,-1.4732 1.6764,-2.8448 2.5908,-4.2672 0.254,-0.4572 0.6604,-0.8636 1.1176,-1.1684 0.762,-0.4572 1.7272,0.1524 1.5748,1.016 -0.2032,1.016 -0.508,2.032 -0.8636,2.9464 -0.5588,1.4732 -1.1684,2.9464 -1.778,4.3688 0.1016,0.1524 0.254,0.254 0.3556,0.3556 z"
         style="font-style:normal;font-variant:normal;font-weight:normal;font-stretch:normal;font-size:50.8px;font-family:'Wild Youth';-inkscape-font-specification:'Wild Youth, Normal';font-variant-ligatures:normal;font-variant-caps:normal;font-variant-numeric:normal;font-variant-east-asian:normal"
         id="path2024" />
      <path
         d="m 244.12692,93.321509 c 1.2192,-1.016 1.9812,-1.6764 2.7432,-2.3368 5.1308,-4.5212 6.9088,-5.588 11.9888,-10.0584 0.762,-0.7112 1.5748,-1.3716 2.3876,-1.9812 0.4064,-0.254 0.9652,-0.3556 1.4732,-0.508 0.3556,0.9144 -0.254,1.3208 -0.6096,1.778 -1.4732,1.5748 -2.9464,3.0988 -4.3688,4.6736 -3.2512,3.4036 -3.0988,3.3528 -6.4008,6.6548 -1.3208,1.3716 -2.794,2.5908 -4.318,3.7592 -1.4224,1.0668 -3.0988,1.4224 -4.9276,1.0668 -1.524,-0.3048 -2.3876,-1.1684 -2.6416,-2.6416 -0.4064,-2.032 -0.4572,-4.064 0,-6.1468 0.1524,-0.5588 0.254,-1.1684 0.4572,-2.1336 -0.7112,0.4572 -1.1684,0.7112 -1.5748,1.016 -1.3716,1.0668 -2.6924,2.1844 -4.1148,3.1496 -1.8288,1.27 -3.9116,1.6764 -6.096,1.4224 -2.3368,-0.3048 -3.3528,-1.5748 -3.048,-3.9116 0.0508,-0.5588 0.254,-1.0668 0.4064,-1.5748 1.1176,-3.048 2.7432,-5.7404 4.9276,-8.0772 0.6096,-0.6096 1.3716,-1.016 2.1844,-1.3716 0.4064,-0.1524 1.016,0.0508 1.4732,0.1016 0.508,1.1176 -0.2032,1.8288 -0.5588,2.54 -1.016,2.2352 -2.0828,4.4704 -3.048,6.7056 -0.3556,0.8636 -0.7112,1.778 -0.3048,2.8448 1.016,0 1.8288,-0.508 2.5908,-1.0668 2.032,-1.4732 4.0132,-3.048 5.9944,-4.6228 1.3716,-1.0668 2.6924,-2.2352 3.9624,-3.4036 0.9144,-0.762 1.9304,-1.1176 3.0988,-0.8636 1.1684,0.254 1.6256,0.8636 1.3716,2.032 -0.1524,0.8636 -0.4064,1.6764 -0.7112,2.4892 -0.6096,1.8288 -1.27,3.6068 -1.8796,5.3848 -0.508,1.4224 -0.4572,2.9464 -0.4572,5.08 z"
         style="font-style:normal;font-variant:normal;font-weight:normal;font-stretch:normal;font-size:50.8px;font-family:'Wild Youth';-inkscape-font-specification:'Wild Youth, Normal';font-variant-ligatures:normal;font-variant-caps:normal;font-variant-numeric:normal;font-variant-east-asian:normal"
         id="path2026" />
      <path
         d="m 284.07001,77.979909 c -0.2032,1.3208 -0.9144,1.778 -1.4732,2.2352 -6.2992,5.334 -6.9596,6.4008 -10.6172,9.144 -2.4384,1.9812 -5.08,3.7084 -7.7216,5.4356 -1.9812,1.3208 -4.1656,1.9304 -6.5532,2.032 -0.8128,-0.0508 -1.6764,-0.1524 -2.54,-0.4064 -1.2192,-0.3556 -2.032,-1.27 -2.032,-2.54 0,-1.2192 0.1016,-2.4384 0.4064,-3.556 1.7272,-5.2324 4.9276,-9.4996 9.1948,-13.0048 1.2192,-1.016 2.6416,-1.6764 4.3688,-1.5748 2.286,0.1016 2.9972,1.1176 1.9812,3.2004 -1.016,2.2352 -2.3368,4.1656 -4.2672,5.6388 -1.2192,0.9652 -2.5908,1.8288 -3.9624,2.5908 -0.8636,0.4572 -1.3208,1.016 -1.5748,1.9304 -0.4064,1.4224 -0.8128,2.8448 -0.2032,4.2672 1.016,0.3556 1.7272,-0.1016 2.3368,-0.508 1.9304,-1.1176 3.81,-2.2352 5.6388,-3.556 5.9436,-4.3688 3.6068,-2.0828 9.6012,-6.5024 1.7272,-1.27 3.5052,-2.4384 5.2324,-3.6576 0.5588,-0.4064 1.2192,-0.6604 2.1844,-1.1684 z m -16.8656,-0.9144 c -1.6764,0.5588 -2.4384,1.9812 -3.302,3.1496 -1.8288,2.3368 -1.9812,2.6924 -2.2352,4.2164 2.286,-1.1176 4.0132,-2.794 5.1816,-4.9276 0.4064,-0.6604 0.8636,-1.3716 0.3556,-2.4384 z"
         style="font-style:normal;font-variant:normal;font-weight:normal;font-stretch:normal;font-size:50.8px;font-family:'Wild Youth';-inkscape-font-specification:'Wild Youth, Normal';font-variant-ligatures:normal;font-variant-caps:normal;font-variant-numeric:normal;font-variant-east-asian:normal"
         id="path2028" />
    </g>
    <text
       xml:space="preserve"
       id="text2008"
       style="font-style:normal;font-weight:normal;font-size:10.5833px;line-height:1.25;font-family:sans-serif;letter-spacing:0px;word-spacing:0px;white-space:pre;shape-inside:url(#rect2010);fill:#000000;fill-opacity:1;stroke:none;" />
  </g>
</svg>
